#!OML:ASF F:\VICON\USERDATA\INSTALL\rory3\rory3.ASF
:FULLY-SPECIFIED
:DEGREES
3660
root -2.20615 17.856 -6.09945 724.047 -59.223 -1087.67
lowerback 11.1201 2.51514 2.07986
upperback 0.806388 3.64212 1.23476
thorax -5.33758 1.7456 -0.44047
lowerneck -21.0983 -4.05558 -10.7583
upperneck 33.3206 -4.96188 7.19995
head 15.8311 -2.58871 3.95077
rclavicle 1.95306e-014 2.38542e-015
rhumerus -31.0578 -8.32253 -81.6282
rradius 33.4166
rwrist 2.61604
rhand -18.5284 8.36436
rfingers 7.12502
rthumb 7.76031 -21.4732
lclavicle 1.95306e-014 2.38542e-015
lhumerus -37.4003 4.15172 84.1133
lradius 30.1123
lwrist -6.27061
lhand -16.9336 26.1103
lfingers 7.12502
lthumb 9.29938 55.8852
rfemur -2.01261 -1.9382 28.4187
rtibia 24.3175
rfoot -15.9397 -1.0401
rtoes 8.19537
lfemur -20.6811 -3.45964 -18.7046
ltibia 45.6617
lfoot -8.50159 2.5363
ltoes -17.1578
3661
root -2.29276 17.8484 -6.05005 724.208 -59.0139 -1087.63
lowerback 11.0333 2.5106 2.22195
upperback 0.760013 3.65082 1.19148
thorax -5.32594 1.74653 -0.563252
lowerneck -21.2094 -4.05039 -10.8579
upperneck 33.2941 -4.88988 7.19504
head 15.8389 -2.56761 3.97981
rclavicle -5.27121e-014 -2.23633e-015
rhumerus -30.77 -7.83386 -81.7941
rradius 33.7337
rwrist 2.6116
rhand -18.4634 8.16434
rfingers 7.12502
rthumb 7.82313 -21.6709
lclavicle -5.27121e-014 -2.23633e-015
lhumerus -37.4962 4.26435 84.0572
lradius 29.9953
lwrist -6.59841
lhand -16.8188 26.3101
lfingers 7.12502
lthumb 9.41023 56.08
rfemur -1.77061 -2.14596 28.4071
rtibia 24.0968
rfoot -16.2224 -1.27198
rtoes 7.61501
lfemur -21.1642 -3.21941 -18.8486
ltibia 43.8471
lfoot -8.74627 2.52587
ltoes -19.1317
3662
root -2.38258 17.8516 -5.99976 724.635 -59.0404 -1087.84
lowerback 10.8683 2.62692 2.43697
upperback 0.704041 3.82585 1.13261
thorax -5.27059 1.82826 -0.763855
lowerneck -21.2128 -4.05508 -10.8845
upperneck 33.2022 -4.92385 7.32517
head 15.8046 -2.56295 4.03195
rclavicle -2.82026e-015 5.2181e-015
rhumerus -30.5315 -7.58274 -81.9366
rradius 34.0329
rwrist 2.62448
rhand -17.9613 8.54116
rfingers 7.12502
rthumb 8.30768 -21.2755
lclavicle -2.82026e-015 5.2181e-015
lhumerus -37.4997 4.20247 84.0172
lradius 29.7846
lwrist -6.75071
lhand -16.5344 26.5676
lfingers 7.12502
lthumb 9.68455 56.325
rfemur -1.53244 -2.19027 28.5115
rtibia 23.8211
rfoot -16.3057 -1.01009
rtoes 7.95189
lfemur -21.6366 -2.86872 -18.8181
ltibia 41.9386
lfoot -8.80967 2.40716
ltoes -18.4298
3663
root -2.47363 17.8553 -5.95007 724.987 -58.967 -1088.02
lowerback 10.764 2.71649 2.61852
upperback 0.623512 3.96395 1.07652
thorax -5.27694 1.89142 -0.9406
lowerneck -21.2273 -4.06131 -10.8442
upperneck 33.2067 -4.98427 7.42627
head 15.8197 -2.56794 4.05796
rclavicle -5.23673e-015 1.18277e-014
rhumerus -30.4181 -7.20776 -82.1354
rradius 34.456
rwrist 2.53401
rhand -17.9629 8.50279
rfingers 7.12502
rthumb 8.30617 -21.3139
lclavicle -5.23673e-015 1.18277e-014
lhumerus -37.5411 4.38492 83.8699
lradius 29.5074
lwrist -7.1207
lhand -16.4914 26.5262
lfingers 7.12502
lthumb 9.72608 56.2816
rfemur -1.1794 -2.19946 28.6216
rtibia 23.424
rfoot -16.2464 -0.868856
rtoes 8.37746
lfemur -22.0137 -2.53993 -18.8242
ltibia 39.9461
lfoot -8.70577 2.35484
ltoes -18.2524
3664
root -2.56507 17.854 -5.89865 725.11 -58.8186 -1087.98
lowerback 10.6781 2.76819 2.66806
upperback 0.584098 4.03522 1.0322
thorax -5.26147 1.92537 -1.0212
lowerneck -21.2972 -4.07745 -10.7418
upperneck 33.1854 -5.01047 7.36116
head 15.8231 -2.57134 4.00533
rclavicle -6.27973e-014 -1.28216e-014
rhumerus -30.2394 -6.62794 -82.3769
rradius 34.8736
rwrist 2.30882
rhand -18.3747 8.48694
rfingers 7.12502
rthumb 7.90866 -21.3451
lclavicle -6.27973e-014 -1.28216e-014
lhumerus -37.614 4.54402 83.7799
lradius 29.3688
lwrist -7.2865
lhand -16.3324 26.483
lfingers 7.12502
lthumb 9.87943 56.2312
rfemur -0.681719 -2.19593 28.631
rtibia 22.8741
rfoot -16.2681 -1.10642
rtoes 8.25464
lfemur -22.2648 -2.32362 -18.9735
ltibia 37.9068
lfoot -8.49183 2.49072
ltoes -18.9301
